<svg width="46" height="50" viewBox="0 0 46 50" fill="none" xmlns="http://www.w3.org/2000/svg">
<path d="M12.9875 22.67C12.9862 24.2188 13.3302 25.744 13.9888 27.11C16.6797 26.9737 19.2197 25.6933 21.0811 23.5349C22.9424 21.3765 23.9821 18.506 23.9839 15.52C23.9808 14.8494 23.9265 14.1804 23.8215 13.52C22.5516 13.1276 21.217 13.0667 19.9223 13.342C18.6277 13.6174 17.4081 14.2215 16.3594 15.107C15.3107 15.9924 14.4613 17.1352 13.8778 18.4457C13.2944 19.7561 12.9927 21.1986 12.9965 22.66L12.9875 22.67Z" fill="#A445BB"/>
<path d="M21.5483 9.00005H22.1527C21.2292 7.50694 20.0033 6.27416 18.573 5.40034C17.1428 4.52653 15.5479 4.03593 13.916 3.96781C12.284 3.89969 10.6604 4.25593 9.17489 5.00804C7.68941 5.76015 6.38334 6.88723 5.36119 8.29913C4.33904 9.71102 3.62918 11.3685 3.2884 13.139C2.94763 14.9095 2.9854 16.7439 3.39869 18.4953C3.81198 20.2467 4.58933 21.8666 5.66853 23.2253C6.74772 24.584 8.09882 25.6439 9.61371 26.32C9.32366 25.1401 9.17505 23.923 9.17169 22.7C9.18123 19.0664 10.4888 15.5848 12.8083 13.0173C15.1278 10.4498 18.2704 9.00532 21.5483 9.00005Z" fill="#D15187"/>
<path d="M22.1527 9H21.5483C18.2751 9.00523 15.1366 10.4456 12.8178 13.0066C10.4991 15.5677 9.18836 19.0415 9.17169 22.67C9.17505 23.8929 9.32367 25.1101 9.61371 26.29C10.1408 28.4324 11.1301 30.4005 12.4963 32.0245C13.8625 33.6486 15.5646 34.8798 17.4557 35.6121C19.3469 36.3444 21.3703 36.5557 23.3516 36.2278C25.3328 35.8999 27.2123 35.0427 28.8281 33.73L39.6531 45.73C39.8627 45.9614 40.1465 46.0914 40.4424 46.0914C40.7383 46.0914 41.0221 45.9614 41.2317 45.73L42.3503 44.49C42.5591 44.2576 42.6763 43.943 42.6763 43.615C42.6763 43.287 42.5591 42.9724 42.3503 42.74L31.5253 30.74C32.8381 28.7445 33.6394 26.3924 33.8444 23.9331C34.0494 21.4737 33.6504 18.9987 32.6897 16.7703C31.729 14.5419 30.2423 12.6432 28.3873 11.2752C26.5323 9.90725 24.378 9.12108 22.1527 9ZM21.5483 32.19C19.9979 32.1935 18.4758 31.7302 17.1444 30.8496C15.813 29.969 14.7223 28.7041 13.9888 27.19C13.3302 25.8241 12.9862 24.2988 12.9875 22.75C12.9837 21.2886 13.2853 19.8461 13.8688 18.5357C14.4523 17.2252 15.3017 16.0825 16.3504 15.197C17.3991 14.3115 18.6187 13.7074 19.9133 13.432C21.208 13.1567 22.5426 13.2176 23.8125 13.61C25.8161 14.2118 27.5538 15.6009 28.7016 17.5183C29.8494 19.4357 30.3289 21.7504 30.0507 24.0308C29.7724 26.3112 28.7554 28.4016 27.1893 29.912C25.6233 31.4225 23.6151 32.2499 21.5393 32.24L21.5483 32.19Z" fill="#6F00FF"/>
</svg>
