<svg width="32" height="45" viewBox="0 0 32 45" fill="none" xmlns="http://www.w3.org/2000/svg">
<g style="mix-blend-mode:multiply">
<path d="M23.5043 22.63C22.7167 23.9067 21.6602 24.9511 20.4262 25.6729C19.1922 26.3946 17.8181 26.7718 16.4229 26.7718C15.0277 26.7718 13.6536 26.3946 12.4196 25.6729C11.1857 24.9511 10.1291 23.9067 9.34157 22.63C7.7318 23.8835 6.41825 25.5486 5.5122 27.4843C4.60614 29.42 4.13427 31.5692 4.13655 33.75V44.88H28.7093V33.75C28.7116 31.5692 28.2397 29.42 27.3337 27.4843C26.4276 25.5486 25.1141 23.8835 23.5043 22.63Z" fill="#6F00FF"/>
</g>
<g style="mix-blend-mode:multiply">
<path d="M23.5043 22.63C24.3856 21.2013 24.8985 19.5331 24.9877 17.8051C25.0769 16.0771 24.739 14.3548 24.0104 12.824C23.2818 11.2932 22.1901 10.0118 20.8531 9.11801C19.516 8.22419 17.9843 7.75183 16.4229 7.75183C14.8616 7.75183 13.3298 8.22419 11.9928 9.11801C10.6557 10.0118 9.56406 11.2932 8.83546 12.824C8.10685 14.3548 7.76893 16.0771 7.85812 17.8051C7.94731 19.5331 8.46022 21.2013 9.34157 22.63C11.4112 21.003 13.8857 20.129 16.4229 20.129C18.9601 20.129 21.4347 21.003 23.5043 22.63Z" fill="#D15187"/>
</g>
<path d="M16.4229 26.77C17.818 26.7702 19.192 26.3933 20.426 25.6719C21.6599 24.9505 22.7165 23.9064 23.5043 22.63C21.4347 21.003 18.9602 20.129 16.4229 20.129C13.8857 20.129 11.4112 21.003 9.34158 22.63C10.1293 23.9064 11.1859 24.9505 12.4199 25.6719C13.6538 26.3933 15.0279 26.7702 16.4229 26.77Z" fill="#A445BB"/>
<path d="M0.861992 16.79L4.55151 17.25L0.861992 17.72V16.79Z" fill="#6F2CFF"/>
<path d="M16.8379 0.0100098L16.4229 4.09001L16.008 0.0100098H16.8379Z" fill="#6F2CFF"/>
<path d="M31.9839 17.72L28.2943 17.25L31.9839 16.79V17.72Z" fill="#6F2CFF"/>
</svg>
