<svg width="46" height="50" viewBox="0 0 46 50" fill="none" xmlns="http://www.w3.org/2000/svg">
<path d="M30.4021 26.07L33.9202 30C34.0099 30.1004 34.1167 30.1801 34.2344 30.2345C34.3521 30.2889 34.4783 30.3169 34.6058 30.3169C34.7333 30.3169 34.8595 30.2889 34.9772 30.2345C35.0948 30.1801 35.2016 30.1004 35.2914 30L37.7811 27.24V13C37.7823 12.7874 37.7264 12.5792 37.6204 12.402C37.5144 12.2248 37.3632 12.0866 37.1861 12.005C37.009 11.9235 36.8139 11.9023 36.6259 11.9442C36.4378 11.986 36.2653 12.089 36.1303 12.24L26.3156 23.15C26.2259 23.2504 26.1191 23.3301 26.0014 23.3845C25.8838 23.4389 25.7575 23.4669 25.63 23.4669C25.5026 23.4669 25.3763 23.4389 25.2587 23.3845C25.141 23.3301 25.0342 23.2504 24.9445 23.15L19.2343 16.82C19.1445 16.7197 19.0377 16.64 18.9201 16.5856C18.8024 16.5312 18.6762 16.5032 18.5487 16.5032C18.4212 16.5032 18.295 16.5312 18.1773 16.5856C18.0596 16.64 17.9529 16.7197 17.8631 16.82L3.66432 32.69C3.53118 32.8402 3.44097 33.0306 3.40499 33.2374C3.36901 33.4441 3.38886 33.6581 3.46205 33.8524C3.53524 34.0467 3.65853 34.2127 3.81646 34.3297C3.97439 34.4467 4.15996 34.5094 4.3499 34.51H21.4895L29.0399 26.07C29.2208 25.8704 29.4657 25.7583 29.721 25.7583C29.9763 25.7583 30.2212 25.8704 30.4021 26.07Z" fill="#6F00FF"/>
<path d="M41.3353 23.26L37.7811 27.21V33.43C37.7811 33.7138 37.6794 33.9859 37.4984 34.1866C37.3174 34.3873 37.0719 34.5 36.8159 34.5H21.4805L19.9559 36.21C19.8197 36.3597 19.7268 36.5509 19.689 36.7594C19.6513 36.9678 19.6704 37.184 19.744 37.3804C19.8175 37.5768 19.9422 37.7444 20.102 37.8619C20.2619 37.9793 20.4497 38.0413 20.6415 38.04H42.0209C42.1492 38.0467 42.2773 38.025 42.3979 37.9761C42.5185 37.9272 42.6291 37.8521 42.7231 37.7553C42.8172 37.6584 42.8929 37.5417 42.9458 37.412C42.9987 37.2824 43.0278 37.1423 43.0312 37V24C43.0391 23.7782 42.9844 23.5591 42.875 23.3733C42.7655 23.1874 42.6066 23.0438 42.4203 22.9625C42.2339 22.8812 42.0294 22.8662 41.835 22.9195C41.6406 22.9728 41.466 23.0918 41.3353 23.26Z" fill="#D15187"/>
<path d="M37.7811 33.43V27.21L35.2914 30C35.2016 30.1004 35.0948 30.18 34.9772 30.2344C34.8595 30.2888 34.7333 30.3168 34.6058 30.3168C34.4783 30.3168 34.3521 30.2888 34.2344 30.2344C34.1167 30.18 34.0099 30.1004 33.9202 30L30.4021 26.07C30.3123 25.9696 30.2055 25.8899 30.0879 25.8355C29.9702 25.7812 29.844 25.7532 29.7165 25.7532C29.589 25.7532 29.4628 25.7812 29.3451 25.8355C29.2274 25.8899 29.1206 25.9696 29.0309 26.07L21.4805 34.51H36.8159C36.9434 34.51 37.0697 34.482 37.1874 34.4276C37.3051 34.3732 37.4119 34.2935 37.5016 34.1931C37.5914 34.0926 37.6623 33.9735 37.7102 33.8425C37.7582 33.7116 37.7823 33.5713 37.7811 33.43Z" fill="#A445BB"/>
</svg>
